<mxfile host="app.diagrams.net" modified="2021-12-04T15:27:07.467Z" agent="5.0 (Windows NT 10.0; Win64; x64) AppleWebKit/537.36 (KHTML, like Gecko) Chrome/96.0.4664.45 Safari/537.36" etag="S1EbF-qA_qUHmkxrGmcS" version="15.8.8" type="github">
  <diagram id="dsJ7s2vMgQMwFVYu8buw" name="Page-1">
    <mxGraphModel dx="2031" dy="1089" grid="1" gridSize="10" guides="1" tooltips="1" connect="1" arrows="1" fold="1" page="1" pageScale="1" pageWidth="827" pageHeight="1169" math="0" shadow="0">
      <root>
        <mxCell id="0" />
        <mxCell id="1" parent="0" />
        <mxCell id="uWJtjKGiHwzr4gWqTYHl-3" style="edgeStyle=orthogonalEdgeStyle;rounded=0;orthogonalLoop=1;jettySize=auto;html=1;exitX=1;exitY=0.5;exitDx=0;exitDy=0;entryX=0;entryY=0.5;entryDx=0;entryDy=0;endArrow=none;endFill=0;" parent="1" source="gx2fqg2UMWbFpVax5CwM-1" target="gx2fqg2UMWbFpVax5CwM-11" edge="1">
          <mxGeometry relative="1" as="geometry" />
        </mxCell>
        <mxCell id="jzE8oIi-crpwVp-MOxEN-11" style="rounded=0;orthogonalLoop=1;jettySize=auto;html=1;exitX=0.75;exitY=0;exitDx=0;exitDy=0;fontColor=#000000;endArrow=oval;endFill=0;" parent="1" source="gx2fqg2UMWbFpVax5CwM-1" target="jzE8oIi-crpwVp-MOxEN-12" edge="1">
          <mxGeometry relative="1" as="geometry">
            <mxPoint x="463.95238095238096" y="650" as="targetPoint" />
          </mxGeometry>
        </mxCell>
        <mxCell id="VWWuzck4U35PcZzD3d7Q-43" style="edgeStyle=none;rounded=0;orthogonalLoop=1;jettySize=auto;html=1;exitX=0;exitY=0.5;exitDx=0;exitDy=0;entryX=1;entryY=0.5;entryDx=0;entryDy=0;fontSize=11;endArrow=none;endFill=0;" edge="1" parent="1" source="gx2fqg2UMWbFpVax5CwM-1" target="VWWuzck4U35PcZzD3d7Q-42">
          <mxGeometry relative="1" as="geometry" />
        </mxCell>
        <mxCell id="VWWuzck4U35PcZzD3d7Q-49" style="edgeStyle=none;rounded=0;orthogonalLoop=1;jettySize=auto;html=1;exitX=0.25;exitY=0;exitDx=0;exitDy=0;entryX=0.5;entryY=1;entryDx=0;entryDy=0;fontSize=11;endArrow=oval;endFill=0;" edge="1" parent="1" source="gx2fqg2UMWbFpVax5CwM-1" target="jzE8oIi-crpwVp-MOxEN-34">
          <mxGeometry relative="1" as="geometry" />
        </mxCell>
        <mxCell id="VWWuzck4U35PcZzD3d7Q-50" style="edgeStyle=none;rounded=0;orthogonalLoop=1;jettySize=auto;html=1;exitX=0.25;exitY=1;exitDx=0;exitDy=0;entryX=0.5;entryY=0;entryDx=0;entryDy=0;fontSize=11;endArrow=oval;endFill=0;" edge="1" parent="1" source="gx2fqg2UMWbFpVax5CwM-1" target="jzE8oIi-crpwVp-MOxEN-37">
          <mxGeometry relative="1" as="geometry" />
        </mxCell>
        <mxCell id="VWWuzck4U35PcZzD3d7Q-51" style="edgeStyle=none;rounded=0;orthogonalLoop=1;jettySize=auto;html=1;exitX=0.75;exitY=1;exitDx=0;exitDy=0;entryX=0.5;entryY=0;entryDx=0;entryDy=0;fontSize=11;endArrow=oval;endFill=1;" edge="1" parent="1" source="gx2fqg2UMWbFpVax5CwM-1" target="jzE8oIi-crpwVp-MOxEN-38">
          <mxGeometry relative="1" as="geometry" />
        </mxCell>
        <mxCell id="gx2fqg2UMWbFpVax5CwM-1" value="&lt;b&gt;CLIENTE&lt;/b&gt;" style="whiteSpace=wrap;html=1;align=center;fontColor=#000000;" parent="1" vertex="1">
          <mxGeometry x="414" y="690" width="100" height="40" as="geometry" />
        </mxCell>
        <mxCell id="uWJtjKGiHwzr4gWqTYHl-6" style="edgeStyle=orthogonalEdgeStyle;rounded=0;orthogonalLoop=1;jettySize=auto;html=1;exitX=1;exitY=0.5;exitDx=0;exitDy=0;entryX=0;entryY=0.5;entryDx=0;entryDy=0;endArrow=none;endFill=0;" parent="1" source="gx2fqg2UMWbFpVax5CwM-2" target="gx2fqg2UMWbFpVax5CwM-18" edge="1">
          <mxGeometry relative="1" as="geometry" />
        </mxCell>
        <mxCell id="uWJtjKGiHwzr4gWqTYHl-18" style="edgeStyle=orthogonalEdgeStyle;rounded=0;orthogonalLoop=1;jettySize=auto;html=1;exitX=0.25;exitY=0;exitDx=0;exitDy=0;entryX=0.5;entryY=1;entryDx=0;entryDy=0;endArrow=none;endFill=0;" parent="1" source="gx2fqg2UMWbFpVax5CwM-2" target="FtTrVJw0tq06EMOVsZJ_-155" edge="1">
          <mxGeometry relative="1" as="geometry">
            <Array as="points">
              <mxPoint x="806" y="570" />
              <mxPoint x="731" y="570" />
            </Array>
          </mxGeometry>
        </mxCell>
        <mxCell id="uWJtjKGiHwzr4gWqTYHl-19" style="edgeStyle=orthogonalEdgeStyle;rounded=0;orthogonalLoop=1;jettySize=auto;html=1;exitX=0.75;exitY=0;exitDx=0;exitDy=0;entryX=0.5;entryY=1;entryDx=0;entryDy=0;endArrow=none;endFill=0;" parent="1" source="gx2fqg2UMWbFpVax5CwM-2" target="FtTrVJw0tq06EMOVsZJ_-159" edge="1">
          <mxGeometry relative="1" as="geometry">
            <Array as="points">
              <mxPoint x="856" y="570" />
              <mxPoint x="941" y="570" />
            </Array>
          </mxGeometry>
        </mxCell>
        <mxCell id="uWJtjKGiHwzr4gWqTYHl-37" style="rounded=0;orthogonalLoop=1;jettySize=auto;html=1;exitX=1;exitY=0;exitDx=0;exitDy=0;fontSize=11;endArrow=oval;endFill=0;entryX=0.5;entryY=1;entryDx=0;entryDy=0;" parent="1" source="gx2fqg2UMWbFpVax5CwM-2" target="uWJtjKGiHwzr4gWqTYHl-38" edge="1">
          <mxGeometry relative="1" as="geometry">
            <mxPoint x="910" y="650" as="targetPoint" />
          </mxGeometry>
        </mxCell>
        <mxCell id="uWJtjKGiHwzr4gWqTYHl-89" style="edgeStyle=none;rounded=0;orthogonalLoop=1;jettySize=auto;html=1;exitX=0;exitY=0;exitDx=0;exitDy=0;fontSize=9;endArrow=oval;endFill=0;" parent="1" source="gx2fqg2UMWbFpVax5CwM-2" target="uWJtjKGiHwzr4gWqTYHl-90" edge="1">
          <mxGeometry relative="1" as="geometry">
            <mxPoint x="760" y="660" as="targetPoint" />
          </mxGeometry>
        </mxCell>
        <mxCell id="uWJtjKGiHwzr4gWqTYHl-91" style="edgeStyle=none;rounded=0;orthogonalLoop=1;jettySize=auto;html=1;exitX=0;exitY=1;exitDx=0;exitDy=0;fontSize=9;endArrow=oval;endFill=1;" parent="1" source="gx2fqg2UMWbFpVax5CwM-2" target="uWJtjKGiHwzr4gWqTYHl-92" edge="1">
          <mxGeometry relative="1" as="geometry">
            <mxPoint x="750" y="730" as="targetPoint" />
          </mxGeometry>
        </mxCell>
        <mxCell id="uWJtjKGiHwzr4gWqTYHl-93" style="edgeStyle=none;rounded=0;orthogonalLoop=1;jettySize=auto;html=1;exitX=0.25;exitY=1;exitDx=0;exitDy=0;fontSize=9;endArrow=oval;endFill=0;" parent="1" source="gx2fqg2UMWbFpVax5CwM-2" target="uWJtjKGiHwzr4gWqTYHl-94" edge="1">
          <mxGeometry relative="1" as="geometry">
            <mxPoint x="770" y="760" as="targetPoint" />
          </mxGeometry>
        </mxCell>
        <mxCell id="uWJtjKGiHwzr4gWqTYHl-95" style="edgeStyle=none;rounded=0;orthogonalLoop=1;jettySize=auto;html=1;exitX=1;exitY=1;exitDx=0;exitDy=0;fontSize=9;endArrow=oval;endFill=0;" parent="1" source="gx2fqg2UMWbFpVax5CwM-2" target="uWJtjKGiHwzr4gWqTYHl-96" edge="1">
          <mxGeometry relative="1" as="geometry">
            <mxPoint x="880" y="760" as="targetPoint" />
          </mxGeometry>
        </mxCell>
        <mxCell id="uWJtjKGiHwzr4gWqTYHl-97" style="edgeStyle=none;rounded=0;orthogonalLoop=1;jettySize=auto;html=1;exitX=1;exitY=0.75;exitDx=0;exitDy=0;fontSize=9;endArrow=oval;endFill=0;" parent="1" source="gx2fqg2UMWbFpVax5CwM-2" target="uWJtjKGiHwzr4gWqTYHl-98" edge="1">
          <mxGeometry relative="1" as="geometry">
            <mxPoint x="910" y="750" as="targetPoint" />
          </mxGeometry>
        </mxCell>
        <mxCell id="uWJtjKGiHwzr4gWqTYHl-115" style="edgeStyle=none;rounded=0;orthogonalLoop=1;jettySize=auto;html=1;exitX=0.5;exitY=0;exitDx=0;exitDy=0;fontSize=9;endArrow=oval;endFill=0;" parent="1" source="gx2fqg2UMWbFpVax5CwM-2" target="uWJtjKGiHwzr4gWqTYHl-116" edge="1">
          <mxGeometry relative="1" as="geometry">
            <mxPoint x="831.1111111111111" y="660" as="targetPoint" />
          </mxGeometry>
        </mxCell>
        <mxCell id="gx2fqg2UMWbFpVax5CwM-2" value="&lt;b&gt;MACCHINARIO&lt;/b&gt;" style="whiteSpace=wrap;html=1;align=center;" parent="1" vertex="1">
          <mxGeometry x="781" y="690" width="100" height="40" as="geometry" />
        </mxCell>
        <mxCell id="uWJtjKGiHwzr4gWqTYHl-85" style="edgeStyle=none;rounded=0;orthogonalLoop=1;jettySize=auto;html=1;exitX=1;exitY=0;exitDx=0;exitDy=0;fontSize=9;endArrow=oval;endFill=0;" parent="1" source="gx2fqg2UMWbFpVax5CwM-5" target="uWJtjKGiHwzr4gWqTYHl-86" edge="1">
          <mxGeometry relative="1" as="geometry">
            <mxPoint x="1020" y="380.0000000000001" as="targetPoint" />
          </mxGeometry>
        </mxCell>
        <mxCell id="uWJtjKGiHwzr4gWqTYHl-87" style="edgeStyle=none;rounded=0;orthogonalLoop=1;jettySize=auto;html=1;exitX=1;exitY=0.5;exitDx=0;exitDy=0;fontSize=9;endArrow=oval;endFill=1;" parent="1" source="gx2fqg2UMWbFpVax5CwM-5" target="uWJtjKGiHwzr4gWqTYHl-88" edge="1">
          <mxGeometry relative="1" as="geometry">
            <mxPoint x="1020" y="409.94444444444446" as="targetPoint" />
          </mxGeometry>
        </mxCell>
        <mxCell id="gx2fqg2UMWbFpVax5CwM-5" value="&lt;b&gt;PROGETTO&lt;/b&gt;" style="whiteSpace=wrap;html=1;align=center;" parent="1" vertex="1">
          <mxGeometry x="891" y="390" width="100" height="40" as="geometry" />
        </mxCell>
        <mxCell id="uWJtjKGiHwzr4gWqTYHl-26" style="edgeStyle=orthogonalEdgeStyle;rounded=0;orthogonalLoop=1;jettySize=auto;html=1;exitX=0.5;exitY=1;exitDx=0;exitDy=0;entryX=0.5;entryY=0;entryDx=0;entryDy=0;endArrow=none;endFill=0;" parent="1" source="gx2fqg2UMWbFpVax5CwM-6" target="FtTrVJw0tq06EMOVsZJ_-156" edge="1">
          <mxGeometry relative="1" as="geometry" />
        </mxCell>
        <mxCell id="uWJtjKGiHwzr4gWqTYHl-31" style="edgeStyle=orthogonalEdgeStyle;rounded=0;orthogonalLoop=1;jettySize=auto;html=1;exitX=1;exitY=0.5;exitDx=0;exitDy=0;endArrow=none;endFill=0;" parent="1" source="gx2fqg2UMWbFpVax5CwM-6" target="gx2fqg2UMWbFpVax5CwM-17" edge="1">
          <mxGeometry relative="1" as="geometry" />
        </mxCell>
        <mxCell id="uWJtjKGiHwzr4gWqTYHl-66" style="edgeStyle=none;rounded=0;orthogonalLoop=1;jettySize=auto;html=1;exitX=1;exitY=0;exitDx=0;exitDy=0;fontSize=9;endArrow=oval;endFill=0;" parent="1" source="gx2fqg2UMWbFpVax5CwM-6" target="uWJtjKGiHwzr4gWqTYHl-67" edge="1">
          <mxGeometry relative="1" as="geometry">
            <mxPoint x="810" y="160" as="targetPoint" />
          </mxGeometry>
        </mxCell>
        <mxCell id="rHscnQnr_pqCsqy7i4I7-1" style="rounded=0;orthogonalLoop=1;jettySize=auto;html=1;exitX=1;exitY=1;exitDx=0;exitDy=0;endArrow=oval;endFill=1;" parent="1" source="gx2fqg2UMWbFpVax5CwM-6" edge="1">
          <mxGeometry relative="1" as="geometry">
            <mxPoint x="770.75" y="215" as="targetPoint" />
          </mxGeometry>
        </mxCell>
        <mxCell id="rHscnQnr_pqCsqy7i4I7-5" style="rounded=0;sketch=0;orthogonalLoop=1;jettySize=auto;html=1;exitX=1;exitY=1;exitDx=0;exitDy=0;fontSize=9;endArrow=oval;endFill=1;" parent="1" source="gx2fqg2UMWbFpVax5CwM-6" target="rHscnQnr_pqCsqy7i4I7-6" edge="1">
          <mxGeometry relative="1" as="geometry">
            <mxPoint x="800" y="230" as="targetPoint" />
          </mxGeometry>
        </mxCell>
        <mxCell id="VWWuzck4U35PcZzD3d7Q-1" style="rounded=0;orthogonalLoop=1;jettySize=auto;html=1;exitX=0.5;exitY=0;exitDx=0;exitDy=0;entryX=0.5;entryY=1;entryDx=0;entryDy=0;endArrow=oval;endFill=0;" edge="1" parent="1" source="gx2fqg2UMWbFpVax5CwM-6" target="uWJtjKGiHwzr4gWqTYHl-46">
          <mxGeometry relative="1" as="geometry" />
        </mxCell>
        <mxCell id="VWWuzck4U35PcZzD3d7Q-2" style="edgeStyle=none;rounded=0;orthogonalLoop=1;jettySize=auto;html=1;exitX=0.25;exitY=0;exitDx=0;exitDy=0;entryX=0.5;entryY=1;entryDx=0;entryDy=0;endArrow=oval;endFill=0;" edge="1" parent="1" source="gx2fqg2UMWbFpVax5CwM-6" target="uWJtjKGiHwzr4gWqTYHl-44">
          <mxGeometry relative="1" as="geometry" />
        </mxCell>
        <mxCell id="VWWuzck4U35PcZzD3d7Q-3" style="edgeStyle=none;rounded=0;orthogonalLoop=1;jettySize=auto;html=1;exitX=0;exitY=0.25;exitDx=0;exitDy=0;entryX=0.5;entryY=1;entryDx=0;entryDy=0;endArrow=oval;endFill=0;" edge="1" parent="1" source="gx2fqg2UMWbFpVax5CwM-6" target="uWJtjKGiHwzr4gWqTYHl-40">
          <mxGeometry relative="1" as="geometry" />
        </mxCell>
        <mxCell id="VWWuzck4U35PcZzD3d7Q-6" style="edgeStyle=none;rounded=0;orthogonalLoop=1;jettySize=auto;html=1;exitX=0;exitY=0.5;exitDx=0;exitDy=0;entryX=0.975;entryY=0.503;entryDx=0;entryDy=0;entryPerimeter=0;fontSize=11;endArrow=none;endFill=0;" edge="1" parent="1" source="gx2fqg2UMWbFpVax5CwM-6" target="VWWuzck4U35PcZzD3d7Q-5">
          <mxGeometry relative="1" as="geometry" />
        </mxCell>
        <mxCell id="VWWuzck4U35PcZzD3d7Q-8" style="edgeStyle=none;rounded=0;orthogonalLoop=1;jettySize=auto;html=1;exitX=0.25;exitY=1;exitDx=0;exitDy=0;entryX=0.5;entryY=0;entryDx=0;entryDy=0;fontSize=11;endArrow=oval;endFill=0;" edge="1" parent="1" source="gx2fqg2UMWbFpVax5CwM-6" target="uWJtjKGiHwzr4gWqTYHl-48">
          <mxGeometry relative="1" as="geometry" />
        </mxCell>
        <mxCell id="gx2fqg2UMWbFpVax5CwM-6" value="&lt;b&gt;DIPENDENTE&lt;/b&gt;" style="whiteSpace=wrap;html=1;align=center;" parent="1" vertex="1">
          <mxGeometry x="680.5" y="180" width="100" height="40" as="geometry" />
        </mxCell>
        <mxCell id="uWJtjKGiHwzr4gWqTYHl-77" style="edgeStyle=none;rounded=0;orthogonalLoop=1;jettySize=auto;html=1;exitX=0.75;exitY=1;exitDx=0;exitDy=0;fontSize=9;endArrow=oval;endFill=0;entryX=0;entryY=0;entryDx=0;entryDy=0;" parent="1" source="gx2fqg2UMWbFpVax5CwM-9" target="uWJtjKGiHwzr4gWqTYHl-78" edge="1">
          <mxGeometry relative="1" as="geometry">
            <mxPoint x="770" y="460" as="targetPoint" />
          </mxGeometry>
        </mxCell>
        <mxCell id="uWJtjKGiHwzr4gWqTYHl-79" style="edgeStyle=none;rounded=0;orthogonalLoop=1;jettySize=auto;html=1;exitX=1;exitY=0;exitDx=0;exitDy=0;fontSize=9;endArrow=oval;endFill=0;" parent="1" source="gx2fqg2UMWbFpVax5CwM-9" target="uWJtjKGiHwzr4gWqTYHl-80" edge="1">
          <mxGeometry relative="1" as="geometry">
            <mxPoint x="820" y="380.0000000000001" as="targetPoint" />
          </mxGeometry>
        </mxCell>
        <mxCell id="uWJtjKGiHwzr4gWqTYHl-81" style="edgeStyle=none;rounded=0;orthogonalLoop=1;jettySize=auto;html=1;exitX=1;exitY=0.5;exitDx=0;exitDy=0;fontSize=9;endArrow=oval;endFill=0;" parent="1" source="gx2fqg2UMWbFpVax5CwM-9" target="uWJtjKGiHwzr4gWqTYHl-82" edge="1">
          <mxGeometry relative="1" as="geometry">
            <mxPoint x="800" y="409.94444444444446" as="targetPoint" />
          </mxGeometry>
        </mxCell>
        <mxCell id="uWJtjKGiHwzr4gWqTYHl-83" style="edgeStyle=none;rounded=0;orthogonalLoop=1;jettySize=auto;html=1;exitX=1;exitY=1;exitDx=0;exitDy=0;fontSize=9;endArrow=oval;endFill=0;" parent="1" source="gx2fqg2UMWbFpVax5CwM-9" target="uWJtjKGiHwzr4gWqTYHl-84" edge="1">
          <mxGeometry relative="1" as="geometry">
            <mxPoint x="800" y="440.0000000000001" as="targetPoint" />
          </mxGeometry>
        </mxCell>
        <mxCell id="izS-Pc84o4L70vQIA0t2-1" style="edgeStyle=orthogonalEdgeStyle;rounded=0;orthogonalLoop=1;jettySize=auto;html=1;exitX=0;exitY=0.5;exitDx=0;exitDy=0;endArrow=oval;endFill=0;entryX=1;entryY=0.5;entryDx=0;entryDy=0;" parent="1" source="gx2fqg2UMWbFpVax5CwM-9" target="izS-Pc84o4L70vQIA0t2-4" edge="1">
          <mxGeometry relative="1" as="geometry">
            <mxPoint x="630" y="395" as="targetPoint" />
          </mxGeometry>
        </mxCell>
        <mxCell id="gx2fqg2UMWbFpVax5CwM-9" value="&lt;b&gt;INTERVENTO&lt;/b&gt;" style="whiteSpace=wrap;html=1;align=center;" parent="1" vertex="1">
          <mxGeometry x="680.5" y="390" width="100" height="40" as="geometry" />
        </mxCell>
        <mxCell id="jzE8oIi-crpwVp-MOxEN-13" style="edgeStyle=none;rounded=0;orthogonalLoop=1;jettySize=auto;html=1;exitX=0.25;exitY=0;exitDx=0;exitDy=0;fontSize=9;fontColor=#000000;endArrow=oval;endFill=0;" parent="1" source="gx2fqg2UMWbFpVax5CwM-10" target="jzE8oIi-crpwVp-MOxEN-31" edge="1">
          <mxGeometry relative="1" as="geometry">
            <mxPoint x="1171.9444444444443" y="650" as="targetPoint" />
          </mxGeometry>
        </mxCell>
        <mxCell id="jzE8oIi-crpwVp-MOxEN-14" style="edgeStyle=none;rounded=0;orthogonalLoop=1;jettySize=auto;html=1;exitX=0.75;exitY=0;exitDx=0;exitDy=0;fontSize=9;fontColor=#000000;endArrow=oval;endFill=0;" parent="1" source="gx2fqg2UMWbFpVax5CwM-10" target="jzE8oIi-crpwVp-MOxEN-32" edge="1">
          <mxGeometry relative="1" as="geometry">
            <mxPoint x="1240" y="660" as="targetPoint" />
          </mxGeometry>
        </mxCell>
        <mxCell id="jzE8oIi-crpwVp-MOxEN-15" style="edgeStyle=none;rounded=0;orthogonalLoop=1;jettySize=auto;html=1;exitX=1;exitY=0;exitDx=0;exitDy=0;fontSize=9;fontColor=#000000;endArrow=oval;endFill=0;" parent="1" source="gx2fqg2UMWbFpVax5CwM-10" target="jzE8oIi-crpwVp-MOxEN-33" edge="1">
          <mxGeometry relative="1" as="geometry">
            <mxPoint x="1280" y="670" as="targetPoint" />
          </mxGeometry>
        </mxCell>
        <mxCell id="VWWuzck4U35PcZzD3d7Q-80" style="edgeStyle=none;rounded=0;orthogonalLoop=1;jettySize=auto;html=1;exitX=1;exitY=0.5;exitDx=0;exitDy=0;entryX=0;entryY=0.5;entryDx=0;entryDy=0;fontSize=11;endArrow=none;endFill=0;" edge="1" parent="1" source="gx2fqg2UMWbFpVax5CwM-10" target="VWWuzck4U35PcZzD3d7Q-70">
          <mxGeometry relative="1" as="geometry" />
        </mxCell>
        <mxCell id="VWWuzck4U35PcZzD3d7Q-81" style="edgeStyle=none;rounded=0;orthogonalLoop=1;jettySize=auto;html=1;exitX=1;exitY=1;exitDx=0;exitDy=0;entryX=0.5;entryY=0;entryDx=0;entryDy=0;fontSize=11;endArrow=oval;endFill=1;" edge="1" parent="1" source="gx2fqg2UMWbFpVax5CwM-10" target="jzE8oIi-crpwVp-MOxEN-41">
          <mxGeometry relative="1" as="geometry" />
        </mxCell>
        <mxCell id="VWWuzck4U35PcZzD3d7Q-82" style="edgeStyle=none;rounded=0;orthogonalLoop=1;jettySize=auto;html=1;exitX=0.5;exitY=1;exitDx=0;exitDy=0;entryX=0.5;entryY=0;entryDx=0;entryDy=0;fontSize=11;endArrow=oval;endFill=0;" edge="1" parent="1" source="gx2fqg2UMWbFpVax5CwM-10" target="jzE8oIi-crpwVp-MOxEN-40">
          <mxGeometry relative="1" as="geometry" />
        </mxCell>
        <mxCell id="VWWuzck4U35PcZzD3d7Q-83" style="edgeStyle=none;rounded=0;orthogonalLoop=1;jettySize=auto;html=1;exitX=0;exitY=1;exitDx=0;exitDy=0;entryX=0.5;entryY=0;entryDx=0;entryDy=0;fontSize=11;endArrow=oval;endFill=0;" edge="1" parent="1" source="gx2fqg2UMWbFpVax5CwM-10" target="jzE8oIi-crpwVp-MOxEN-39">
          <mxGeometry relative="1" as="geometry" />
        </mxCell>
        <mxCell id="gx2fqg2UMWbFpVax5CwM-10" value="&lt;b&gt;CORRIERE&lt;/b&gt;" style="whiteSpace=wrap;html=1;align=center;fontColor=#000000;" parent="1" vertex="1">
          <mxGeometry x="1147" y="690" width="100" height="40" as="geometry" />
        </mxCell>
        <mxCell id="uWJtjKGiHwzr4gWqTYHl-4" style="edgeStyle=orthogonalEdgeStyle;rounded=0;orthogonalLoop=1;jettySize=auto;html=1;exitX=1;exitY=0.5;exitDx=0;exitDy=0;endArrow=none;endFill=0;" parent="1" source="gx2fqg2UMWbFpVax5CwM-11" target="gx2fqg2UMWbFpVax5CwM-2" edge="1">
          <mxGeometry relative="1" as="geometry" />
        </mxCell>
        <mxCell id="gx2fqg2UMWbFpVax5CwM-11" value="&lt;font style=&quot;font-size: 11px&quot;&gt;ACQUISTO&lt;/font&gt;" style="shape=rhombus;perimeter=rhombusPerimeter;whiteSpace=wrap;html=1;align=center;" parent="1" vertex="1">
          <mxGeometry x="601" y="680" width="120" height="60" as="geometry" />
        </mxCell>
        <mxCell id="VWWuzck4U35PcZzD3d7Q-25" style="edgeStyle=none;rounded=0;orthogonalLoop=1;jettySize=auto;html=1;exitX=0.5;exitY=0;exitDx=0;exitDy=0;entryX=0.5;entryY=1;entryDx=0;entryDy=0;fontSize=11;endArrow=none;endFill=0;" edge="1" parent="1" source="gx2fqg2UMWbFpVax5CwM-14" target="gx2fqg2UMWbFpVax5CwM-2">
          <mxGeometry relative="1" as="geometry" />
        </mxCell>
        <mxCell id="gx2fqg2UMWbFpVax5CwM-14" value="&lt;font style=&quot;font-size: 11px&quot;&gt;APPARTENENZA&lt;/font&gt;" style="shape=rhombus;perimeter=rhombusPerimeter;whiteSpace=wrap;html=1;align=center;" parent="1" vertex="1">
          <mxGeometry x="700" y="880" width="120" height="60" as="geometry" />
        </mxCell>
        <mxCell id="uWJtjKGiHwzr4gWqTYHl-30" style="edgeStyle=orthogonalEdgeStyle;rounded=0;orthogonalLoop=1;jettySize=auto;html=1;exitX=0.5;exitY=1;exitDx=0;exitDy=0;entryX=0.5;entryY=0;entryDx=0;entryDy=0;endArrow=none;endFill=0;" parent="1" source="gx2fqg2UMWbFpVax5CwM-17" target="gx2fqg2UMWbFpVax5CwM-5" edge="1">
          <mxGeometry relative="1" as="geometry" />
        </mxCell>
        <mxCell id="gx2fqg2UMWbFpVax5CwM-17" value="&lt;font style=&quot;font-size: 11px&quot;&gt;PARTECIPAZIONE&lt;/font&gt;" style="shape=rhombus;perimeter=rhombusPerimeter;whiteSpace=wrap;html=1;align=center;" parent="1" vertex="1">
          <mxGeometry x="880.5" y="280" width="120" height="60" as="geometry" />
        </mxCell>
        <mxCell id="uWJtjKGiHwzr4gWqTYHl-7" style="edgeStyle=orthogonalEdgeStyle;rounded=0;orthogonalLoop=1;jettySize=auto;html=1;exitX=1;exitY=0.5;exitDx=0;exitDy=0;entryX=0;entryY=0.5;entryDx=0;entryDy=0;endArrow=none;endFill=0;fontColor=#000000;" parent="1" source="gx2fqg2UMWbFpVax5CwM-18" target="gx2fqg2UMWbFpVax5CwM-10" edge="1">
          <mxGeometry relative="1" as="geometry" />
        </mxCell>
        <mxCell id="gx2fqg2UMWbFpVax5CwM-18" value="&lt;font style=&quot;font-size: 11px&quot;&gt;AFFIDO&lt;/font&gt;" style="shape=rhombus;perimeter=rhombusPerimeter;whiteSpace=wrap;html=1;align=center;" parent="1" vertex="1">
          <mxGeometry x="947" y="680" width="120" height="60" as="geometry" />
        </mxCell>
        <mxCell id="uWJtjKGiHwzr4gWqTYHl-20" style="edgeStyle=orthogonalEdgeStyle;rounded=0;orthogonalLoop=1;jettySize=auto;html=1;exitX=0.5;exitY=0;exitDx=0;exitDy=0;entryX=0.5;entryY=1;entryDx=0;entryDy=0;endArrow=none;endFill=0;" parent="1" source="FtTrVJw0tq06EMOVsZJ_-155" target="gx2fqg2UMWbFpVax5CwM-9" edge="1">
          <mxGeometry relative="1" as="geometry" />
        </mxCell>
        <mxCell id="FtTrVJw0tq06EMOVsZJ_-155" value="&lt;font style=&quot;font-size: 11px&quot;&gt;ESECUZIONE&lt;/font&gt;" style="shape=rhombus;perimeter=rhombusPerimeter;whiteSpace=wrap;html=1;align=center;" parent="1" vertex="1">
          <mxGeometry x="670.5" y="490" width="120" height="60" as="geometry" />
        </mxCell>
        <mxCell id="uWJtjKGiHwzr4gWqTYHl-25" style="edgeStyle=orthogonalEdgeStyle;rounded=0;orthogonalLoop=1;jettySize=auto;html=1;exitX=0.5;exitY=1;exitDx=0;exitDy=0;entryX=0.5;entryY=0;entryDx=0;entryDy=0;endArrow=none;endFill=0;" parent="1" source="FtTrVJw0tq06EMOVsZJ_-156" target="gx2fqg2UMWbFpVax5CwM-9" edge="1">
          <mxGeometry relative="1" as="geometry" />
        </mxCell>
        <mxCell id="uWJtjKGiHwzr4gWqTYHl-73" style="edgeStyle=none;rounded=0;orthogonalLoop=1;jettySize=auto;html=1;exitX=1;exitY=0;exitDx=0;exitDy=0;fontSize=9;endArrow=oval;endFill=0;" parent="1" source="FtTrVJw0tq06EMOVsZJ_-156" target="uWJtjKGiHwzr4gWqTYHl-74" edge="1">
          <mxGeometry relative="1" as="geometry">
            <mxPoint x="770" y="270" as="targetPoint" />
          </mxGeometry>
        </mxCell>
        <mxCell id="uWJtjKGiHwzr4gWqTYHl-75" style="edgeStyle=none;rounded=0;orthogonalLoop=1;jettySize=auto;html=1;exitX=0;exitY=1;exitDx=0;exitDy=0;fontSize=9;endArrow=oval;endFill=0;" parent="1" source="FtTrVJw0tq06EMOVsZJ_-156" target="uWJtjKGiHwzr4gWqTYHl-76" edge="1">
          <mxGeometry relative="1" as="geometry">
            <mxPoint x="680" y="350" as="targetPoint" />
          </mxGeometry>
        </mxCell>
        <mxCell id="VWWuzck4U35PcZzD3d7Q-7" style="edgeStyle=none;rounded=0;orthogonalLoop=1;jettySize=auto;html=1;exitX=1;exitY=1;exitDx=0;exitDy=0;entryX=0;entryY=0;entryDx=0;entryDy=0;fontSize=11;endArrow=oval;endFill=0;" edge="1" parent="1" source="FtTrVJw0tq06EMOVsZJ_-156" target="uWJtjKGiHwzr4gWqTYHl-72">
          <mxGeometry relative="1" as="geometry" />
        </mxCell>
        <mxCell id="FtTrVJw0tq06EMOVsZJ_-156" value="&lt;font style=&quot;font-size: 11px&quot;&gt;COINVOLGIMENTO&lt;/font&gt;" style="shape=rhombus;perimeter=rhombusPerimeter;whiteSpace=wrap;html=1;align=center;" parent="1" vertex="1">
          <mxGeometry x="670.5" y="280" width="120" height="60" as="geometry" />
        </mxCell>
        <mxCell id="uWJtjKGiHwzr4gWqTYHl-21" style="edgeStyle=orthogonalEdgeStyle;rounded=0;orthogonalLoop=1;jettySize=auto;html=1;exitX=0.5;exitY=0;exitDx=0;exitDy=0;entryX=0.5;entryY=1;entryDx=0;entryDy=0;endArrow=none;endFill=0;" parent="1" source="FtTrVJw0tq06EMOVsZJ_-159" target="gx2fqg2UMWbFpVax5CwM-5" edge="1">
          <mxGeometry relative="1" as="geometry" />
        </mxCell>
        <mxCell id="FtTrVJw0tq06EMOVsZJ_-159" value="&lt;font style=&quot;font-size: 11px&quot;&gt;REALIZZAZIONE&lt;/font&gt;" style="shape=rhombus;perimeter=rhombusPerimeter;whiteSpace=wrap;html=1;align=center;" parent="1" vertex="1">
          <mxGeometry x="881" y="490" width="120" height="60" as="geometry" />
        </mxCell>
        <mxCell id="L8EaPlabEkE5flBV4axa-6" style="edgeStyle=orthogonalEdgeStyle;rounded=0;orthogonalLoop=1;jettySize=auto;html=1;exitX=0.5;exitY=1;exitDx=0;exitDy=0;endArrow=none;endFill=0;entryX=0;entryY=0.5;entryDx=0;entryDy=0;" parent="1" source="FtTrVJw0tq06EMOVsZJ_-160" target="L8EaPlabEkE5flBV4axa-4" edge="1">
          <mxGeometry relative="1" as="geometry">
            <mxPoint x="729.0357142857143" y="1140" as="targetPoint" />
          </mxGeometry>
        </mxCell>
        <mxCell id="VWWuzck4U35PcZzD3d7Q-27" style="edgeStyle=none;rounded=0;orthogonalLoop=1;jettySize=auto;html=1;exitX=0.75;exitY=0;exitDx=0;exitDy=0;entryX=0;entryY=1;entryDx=0;entryDy=0;fontSize=11;endArrow=none;endFill=0;" edge="1" parent="1" source="FtTrVJw0tq06EMOVsZJ_-160" target="gx2fqg2UMWbFpVax5CwM-14">
          <mxGeometry relative="1" as="geometry" />
        </mxCell>
        <mxCell id="VWWuzck4U35PcZzD3d7Q-29" style="edgeStyle=none;rounded=0;orthogonalLoop=1;jettySize=auto;html=1;exitX=0.25;exitY=1;exitDx=0;exitDy=0;entryX=0.5;entryY=0;entryDx=0;entryDy=0;fontSize=11;endArrow=oval;endFill=0;" edge="1" parent="1" source="FtTrVJw0tq06EMOVsZJ_-160" target="uWJtjKGiHwzr4gWqTYHl-102">
          <mxGeometry relative="1" as="geometry" />
        </mxCell>
        <mxCell id="VWWuzck4U35PcZzD3d7Q-30" style="edgeStyle=none;rounded=0;orthogonalLoop=1;jettySize=auto;html=1;exitX=0;exitY=1;exitDx=0;exitDy=0;entryX=1;entryY=0;entryDx=0;entryDy=0;fontSize=11;endArrow=oval;endFill=0;" edge="1" parent="1" source="FtTrVJw0tq06EMOVsZJ_-160" target="uWJtjKGiHwzr4gWqTYHl-112">
          <mxGeometry relative="1" as="geometry" />
        </mxCell>
        <mxCell id="VWWuzck4U35PcZzD3d7Q-31" style="edgeStyle=none;rounded=0;orthogonalLoop=1;jettySize=auto;html=1;exitX=0;exitY=0.75;exitDx=0;exitDy=0;entryX=1;entryY=0.5;entryDx=0;entryDy=0;fontSize=11;endArrow=oval;endFill=0;" edge="1" parent="1" source="FtTrVJw0tq06EMOVsZJ_-160" target="uWJtjKGiHwzr4gWqTYHl-110">
          <mxGeometry relative="1" as="geometry" />
        </mxCell>
        <mxCell id="VWWuzck4U35PcZzD3d7Q-32" style="edgeStyle=none;rounded=0;orthogonalLoop=1;jettySize=auto;html=1;exitX=0;exitY=0.5;exitDx=0;exitDy=0;entryX=1;entryY=0.5;entryDx=0;entryDy=0;fontSize=11;endArrow=oval;endFill=0;" edge="1" parent="1" source="FtTrVJw0tq06EMOVsZJ_-160" target="uWJtjKGiHwzr4gWqTYHl-109">
          <mxGeometry relative="1" as="geometry" />
        </mxCell>
        <mxCell id="VWWuzck4U35PcZzD3d7Q-33" style="edgeStyle=none;rounded=0;orthogonalLoop=1;jettySize=auto;html=1;exitX=0;exitY=0;exitDx=0;exitDy=0;entryX=1;entryY=1;entryDx=0;entryDy=0;fontSize=11;endArrow=oval;endFill=0;" edge="1" parent="1" source="FtTrVJw0tq06EMOVsZJ_-160" target="uWJtjKGiHwzr4gWqTYHl-108">
          <mxGeometry relative="1" as="geometry" />
        </mxCell>
        <mxCell id="VWWuzck4U35PcZzD3d7Q-34" style="edgeStyle=none;rounded=0;orthogonalLoop=1;jettySize=auto;html=1;exitX=0.25;exitY=0;exitDx=0;exitDy=0;entryX=0.5;entryY=1;entryDx=0;entryDy=0;fontSize=11;endArrow=oval;endFill=1;" edge="1" parent="1" source="FtTrVJw0tq06EMOVsZJ_-160" target="uWJtjKGiHwzr4gWqTYHl-100">
          <mxGeometry relative="1" as="geometry" />
        </mxCell>
        <mxCell id="FtTrVJw0tq06EMOVsZJ_-160" value="&lt;b&gt;BASE&lt;/b&gt;" style="whiteSpace=wrap;html=1;align=center;" parent="1" vertex="1">
          <mxGeometry x="606.75" y="1020" width="100" height="40" as="geometry" />
        </mxCell>
        <mxCell id="uWJtjKGiHwzr4gWqTYHl-113" style="edgeStyle=none;rounded=0;orthogonalLoop=1;jettySize=auto;html=1;exitX=1;exitY=0;exitDx=0;exitDy=0;fontSize=9;endArrow=oval;endFill=0;" parent="1" source="FtTrVJw0tq06EMOVsZJ_-161" target="uWJtjKGiHwzr4gWqTYHl-114" edge="1">
          <mxGeometry relative="1" as="geometry">
            <mxPoint x="1097.19" y="1000" as="targetPoint" />
          </mxGeometry>
        </mxCell>
        <mxCell id="VWWuzck4U35PcZzD3d7Q-28" style="edgeStyle=none;rounded=0;orthogonalLoop=1;jettySize=auto;html=1;exitX=0;exitY=0;exitDx=0;exitDy=0;entryX=1;entryY=1;entryDx=0;entryDy=0;fontSize=11;endArrow=none;endFill=0;" edge="1" parent="1" source="FtTrVJw0tq06EMOVsZJ_-161" target="VWWuzck4U35PcZzD3d7Q-24">
          <mxGeometry relative="1" as="geometry" />
        </mxCell>
        <mxCell id="VWWuzck4U35PcZzD3d7Q-35" style="edgeStyle=none;rounded=0;orthogonalLoop=1;jettySize=auto;html=1;exitX=0.75;exitY=1;exitDx=0;exitDy=0;entryX=0;entryY=0;entryDx=0;entryDy=0;fontSize=11;endArrow=oval;endFill=0;" edge="1" parent="1" source="FtTrVJw0tq06EMOVsZJ_-161" target="VWWuzck4U35PcZzD3d7Q-23">
          <mxGeometry relative="1" as="geometry" />
        </mxCell>
        <mxCell id="VWWuzck4U35PcZzD3d7Q-36" style="edgeStyle=none;rounded=0;orthogonalLoop=1;jettySize=auto;html=1;exitX=1;exitY=0.5;exitDx=0;exitDy=0;entryX=0;entryY=0;entryDx=0;entryDy=0;fontSize=11;endArrow=oval;endFill=1;" edge="1" parent="1" source="FtTrVJw0tq06EMOVsZJ_-161" target="VWWuzck4U35PcZzD3d7Q-22">
          <mxGeometry relative="1" as="geometry" />
        </mxCell>
        <mxCell id="FtTrVJw0tq06EMOVsZJ_-161" value="&lt;b&gt;ACCESSORIA&lt;/b&gt;" style="whiteSpace=wrap;html=1;align=center;" parent="1" vertex="1">
          <mxGeometry x="968.19" y="1020" width="100" height="40" as="geometry" />
        </mxCell>
        <mxCell id="uWJtjKGiHwzr4gWqTYHl-38" value="Problematiche" style="text;html=1;strokeColor=none;fillColor=none;align=center;verticalAlign=middle;whiteSpace=wrap;rounded=0;fontSize=9;" parent="1" vertex="1">
          <mxGeometry x="890" y="650" width="51" height="20" as="geometry" />
        </mxCell>
        <mxCell id="uWJtjKGiHwzr4gWqTYHl-40" value="Disponibilità" style="text;html=1;strokeColor=none;fillColor=none;align=center;verticalAlign=middle;whiteSpace=wrap;rounded=0;fontSize=9;" parent="1" vertex="1">
          <mxGeometry x="618" y="135" width="60" height="30" as="geometry" />
        </mxCell>
        <mxCell id="uWJtjKGiHwzr4gWqTYHl-44" value="OreManutenzione" style="text;html=1;strokeColor=none;fillColor=none;align=center;verticalAlign=middle;whiteSpace=wrap;rounded=0;fontSize=9;" parent="1" vertex="1">
          <mxGeometry x="661" y="120" width="89" height="30" as="geometry" />
        </mxCell>
        <mxCell id="uWJtjKGiHwzr4gWqTYHl-46" value="AlboProfessionale" style="text;html=1;strokeColor=none;fillColor=none;align=center;verticalAlign=middle;whiteSpace=wrap;rounded=0;fontSize=9;" parent="1" vertex="1">
          <mxGeometry x="755.4955555555555" y="120" width="60" height="30" as="geometry" />
        </mxCell>
        <mxCell id="uWJtjKGiHwzr4gWqTYHl-48" value="Specializzazione" style="text;html=1;strokeColor=none;fillColor=none;align=center;verticalAlign=middle;whiteSpace=wrap;rounded=0;fontSize=9;" parent="1" vertex="1">
          <mxGeometry x="661" y="235" width="60" height="30" as="geometry" />
        </mxCell>
        <mxCell id="uWJtjKGiHwzr4gWqTYHl-61" value="Nome" style="text;html=1;strokeColor=none;fillColor=none;align=center;verticalAlign=middle;whiteSpace=wrap;rounded=0;fontSize=9;" parent="1" vertex="1">
          <mxGeometry x="280" y="160" width="36.5" height="20" as="geometry" />
        </mxCell>
        <mxCell id="uWJtjKGiHwzr4gWqTYHl-62" value="Cognome" style="text;html=1;strokeColor=none;fillColor=none;align=center;verticalAlign=middle;whiteSpace=wrap;rounded=0;fontSize=9;" parent="1" vertex="1">
          <mxGeometry x="330" y="130" width="45" height="20" as="geometry" />
        </mxCell>
        <mxCell id="uWJtjKGiHwzr4gWqTYHl-63" value="CF" style="text;html=1;strokeColor=none;fillColor=none;align=center;verticalAlign=middle;whiteSpace=wrap;rounded=0;fontSize=9;" parent="1" vertex="1">
          <mxGeometry x="286.5" y="210" width="30" height="20" as="geometry" />
        </mxCell>
        <mxCell id="uWJtjKGiHwzr4gWqTYHl-64" value="Telefono" style="text;html=1;strokeColor=none;fillColor=none;align=center;verticalAlign=middle;whiteSpace=wrap;rounded=0;fontSize=9;" parent="1" vertex="1">
          <mxGeometry x="402.02" y="135" width="40" height="25" as="geometry" />
        </mxCell>
        <mxCell id="uWJtjKGiHwzr4gWqTYHl-65" value="E-mail" style="text;html=1;strokeColor=none;fillColor=none;align=center;verticalAlign=middle;whiteSpace=wrap;rounded=0;fontSize=9;" parent="1" vertex="1">
          <mxGeometry x="372.02" y="247.5" width="40" height="20" as="geometry" />
        </mxCell>
        <mxCell id="uWJtjKGiHwzr4gWqTYHl-67" value="TipoContratto" style="text;html=1;strokeColor=none;fillColor=none;align=center;verticalAlign=middle;whiteSpace=wrap;rounded=0;fontSize=9;" parent="1" vertex="1">
          <mxGeometry x="800.5" y="140" width="60" height="30" as="geometry" />
        </mxCell>
        <mxCell id="uWJtjKGiHwzr4gWqTYHl-68" style="edgeStyle=none;rounded=0;orthogonalLoop=1;jettySize=auto;html=1;exitX=0;exitY=1;exitDx=0;exitDy=0;fontSize=9;endArrow=oval;endFill=0;" parent="1" source="FtTrVJw0tq06EMOVsZJ_-156" target="FtTrVJw0tq06EMOVsZJ_-156" edge="1">
          <mxGeometry relative="1" as="geometry" />
        </mxCell>
        <mxCell id="uWJtjKGiHwzr4gWqTYHl-70" style="edgeStyle=none;rounded=0;orthogonalLoop=1;jettySize=auto;html=1;exitX=0;exitY=0;exitDx=0;exitDy=0;fontSize=9;endArrow=oval;endFill=0;" parent="1" source="FtTrVJw0tq06EMOVsZJ_-156" target="FtTrVJw0tq06EMOVsZJ_-156" edge="1">
          <mxGeometry relative="1" as="geometry" />
        </mxCell>
        <mxCell id="uWJtjKGiHwzr4gWqTYHl-72" value="DataInizio" style="text;html=1;strokeColor=none;fillColor=none;align=center;verticalAlign=middle;whiteSpace=wrap;rounded=0;fontSize=9;" parent="1" vertex="1">
          <mxGeometry x="787" y="335" width="40" height="25" as="geometry" />
        </mxCell>
        <mxCell id="uWJtjKGiHwzr4gWqTYHl-74" value="DataFine" style="text;html=1;strokeColor=none;fillColor=none;align=center;verticalAlign=middle;whiteSpace=wrap;rounded=0;fontSize=9;" parent="1" vertex="1">
          <mxGeometry x="806.75" y="245" width="40" height="25" as="geometry" />
        </mxCell>
        <mxCell id="uWJtjKGiHwzr4gWqTYHl-76" value="Ore" style="text;html=1;strokeColor=none;fillColor=none;align=center;verticalAlign=middle;whiteSpace=wrap;rounded=0;fontSize=9;" parent="1" vertex="1">
          <mxGeometry x="660.5" y="335" width="20" height="15" as="geometry" />
        </mxCell>
        <mxCell id="uWJtjKGiHwzr4gWqTYHl-78" value="#Progressivo" style="text;html=1;strokeColor=none;fillColor=none;align=center;verticalAlign=middle;whiteSpace=wrap;rounded=0;fontSize=9;" parent="1" vertex="1">
          <mxGeometry x="778.31" y="465" width="60" height="25" as="geometry" />
        </mxCell>
        <mxCell id="uWJtjKGiHwzr4gWqTYHl-80" value="Stato" style="text;html=1;strokeColor=none;fillColor=none;align=center;verticalAlign=middle;whiteSpace=wrap;rounded=0;fontSize=9;" parent="1" vertex="1">
          <mxGeometry x="800.5" y="365" width="40" height="15" as="geometry" />
        </mxCell>
        <mxCell id="uWJtjKGiHwzr4gWqTYHl-82" value="DataArrivo" style="text;html=1;strokeColor=none;fillColor=none;align=center;verticalAlign=middle;whiteSpace=wrap;rounded=0;fontSize=9;" parent="1" vertex="1">
          <mxGeometry x="800" y="395" width="60" height="15" as="geometry" />
        </mxCell>
        <mxCell id="uWJtjKGiHwzr4gWqTYHl-84" value="DataFine" style="text;html=1;strokeColor=none;fillColor=none;align=center;verticalAlign=middle;whiteSpace=wrap;rounded=0;fontSize=9;" parent="1" vertex="1">
          <mxGeometry x="795.5" y="430" width="50" height="15" as="geometry" />
        </mxCell>
        <mxCell id="uWJtjKGiHwzr4gWqTYHl-86" value="Tipo" style="text;html=1;strokeColor=none;fillColor=none;align=center;verticalAlign=middle;whiteSpace=wrap;rounded=0;fontSize=9;" parent="1" vertex="1">
          <mxGeometry x="1001" y="355" width="30" height="25" as="geometry" />
        </mxCell>
        <mxCell id="uWJtjKGiHwzr4gWqTYHl-88" value="ID" style="text;html=1;strokeColor=none;fillColor=none;align=center;verticalAlign=middle;whiteSpace=wrap;rounded=0;fontSize=9;" parent="1" vertex="1">
          <mxGeometry x="1020" y="399.99" width="21" height="20.03" as="geometry" />
        </mxCell>
        <mxCell id="uWJtjKGiHwzr4gWqTYHl-90" value="Valutazione" style="text;html=1;strokeColor=none;fillColor=none;align=center;verticalAlign=middle;whiteSpace=wrap;rounded=0;fontSize=9;" parent="1" vertex="1">
          <mxGeometry x="730" y="650" width="40" height="25" as="geometry" />
        </mxCell>
        <mxCell id="uWJtjKGiHwzr4gWqTYHl-92" value="Seriale" style="text;html=1;strokeColor=none;fillColor=none;align=center;verticalAlign=middle;whiteSpace=wrap;rounded=0;fontSize=9;" parent="1" vertex="1">
          <mxGeometry x="705.5" y="750" width="50" height="15" as="geometry" />
        </mxCell>
        <mxCell id="uWJtjKGiHwzr4gWqTYHl-94" value="Prezzo" style="text;html=1;strokeColor=none;fillColor=none;align=center;verticalAlign=middle;whiteSpace=wrap;rounded=0;fontSize=9;" parent="1" vertex="1">
          <mxGeometry x="769" y="750" width="40" height="15" as="geometry" />
        </mxCell>
        <mxCell id="uWJtjKGiHwzr4gWqTYHl-96" value="#Accessori" style="text;html=1;strokeColor=none;fillColor=none;align=center;verticalAlign=middle;whiteSpace=wrap;rounded=0;fontSize=9;" parent="1" vertex="1">
          <mxGeometry x="897.75" y="755" width="30" height="15" as="geometry" />
        </mxCell>
        <mxCell id="uWJtjKGiHwzr4gWqTYHl-98" value="Descrizione" style="text;html=1;strokeColor=none;fillColor=none;align=center;verticalAlign=middle;whiteSpace=wrap;rounded=0;fontSize=9;" parent="1" vertex="1">
          <mxGeometry x="911" y="735" width="40" height="15" as="geometry" />
        </mxCell>
        <mxCell id="uWJtjKGiHwzr4gWqTYHl-100" value="NomeCategoria" style="text;html=1;strokeColor=none;fillColor=none;align=center;verticalAlign=middle;whiteSpace=wrap;rounded=0;fontSize=9;" parent="1" vertex="1">
          <mxGeometry x="598.75" y="970" width="66" height="20" as="geometry" />
        </mxCell>
        <mxCell id="uWJtjKGiHwzr4gWqTYHl-102" value="DestinazioneUso" style="text;html=1;strokeColor=none;fillColor=none;align=center;verticalAlign=middle;whiteSpace=wrap;rounded=0;fontSize=9;" parent="1" vertex="1">
          <mxGeometry x="575.75" y="1085" width="60" height="25" as="geometry" />
        </mxCell>
        <mxCell id="uWJtjKGiHwzr4gWqTYHl-108" value="Lunghezza" style="text;html=1;strokeColor=none;fillColor=none;align=center;verticalAlign=middle;whiteSpace=wrap;rounded=0;fontSize=9;" parent="1" vertex="1">
          <mxGeometry x="548.25" y="980" width="40" height="25" as="geometry" />
        </mxCell>
        <mxCell id="uWJtjKGiHwzr4gWqTYHl-109" value="Larghezza" style="text;html=1;strokeColor=none;fillColor=none;align=center;verticalAlign=middle;whiteSpace=wrap;rounded=0;fontSize=9;" parent="1" vertex="1">
          <mxGeometry x="515.75" y="1010" width="50" height="20" as="geometry" />
        </mxCell>
        <mxCell id="uWJtjKGiHwzr4gWqTYHl-110" value="Altezza" style="text;html=1;strokeColor=none;fillColor=none;align=center;verticalAlign=middle;whiteSpace=wrap;rounded=0;fontSize=9;" parent="1" vertex="1">
          <mxGeometry x="515.75" y="1040" width="40" height="15" as="geometry" />
        </mxCell>
        <mxCell id="uWJtjKGiHwzr4gWqTYHl-112" value="Trattamenti" style="text;html=1;strokeColor=none;fillColor=none;align=center;verticalAlign=middle;whiteSpace=wrap;rounded=0;fontSize=9;" parent="1" vertex="1">
          <mxGeometry x="525.75" y="1065" width="50" height="15" as="geometry" />
        </mxCell>
        <mxCell id="uWJtjKGiHwzr4gWqTYHl-114" value="Applicabilità multipla" style="text;html=1;strokeColor=none;fillColor=none;align=center;verticalAlign=middle;whiteSpace=wrap;rounded=0;fontSize=9;" parent="1" vertex="1">
          <mxGeometry x="1087.69" y="985" width="51" height="25" as="geometry" />
        </mxCell>
        <mxCell id="uWJtjKGiHwzr4gWqTYHl-116" value="Lotto" style="text;html=1;strokeColor=none;fillColor=none;align=center;verticalAlign=middle;whiteSpace=wrap;rounded=0;fontSize=9;" parent="1" vertex="1">
          <mxGeometry x="820.45" y="645" width="21.11" height="25" as="geometry" />
        </mxCell>
        <mxCell id="jzE8oIi-crpwVp-MOxEN-1" value="(1,N)" style="text;html=1;align=center;verticalAlign=middle;whiteSpace=wrap;rounded=0;fontColor=#FF0000;" parent="1" vertex="1">
          <mxGeometry x="780" y="185" width="40" height="10" as="geometry" />
        </mxCell>
        <mxCell id="jzE8oIi-crpwVp-MOxEN-12" value="&lt;font style=&quot;font-size: 9px&quot;&gt;#Acquisti&lt;/font&gt;" style="text;html=1;strokeColor=none;fillColor=none;align=center;verticalAlign=middle;whiteSpace=wrap;rounded=0;fontColor=#000000;" parent="1" vertex="1">
          <mxGeometry x="493" y="635" width="43.95" height="25" as="geometry" />
        </mxCell>
        <mxCell id="jzE8oIi-crpwVp-MOxEN-31" value="DataPrimoImpiego" style="text;html=1;strokeColor=none;fillColor=none;align=center;verticalAlign=middle;whiteSpace=wrap;rounded=0;fontSize=9;fontColor=#000000;" parent="1" vertex="1">
          <mxGeometry x="1110" y="635" width="41.94" height="25" as="geometry" />
        </mxCell>
        <mxCell id="jzE8oIi-crpwVp-MOxEN-32" value="Società" style="text;html=1;strokeColor=none;fillColor=none;align=center;verticalAlign=middle;whiteSpace=wrap;rounded=0;fontSize=9;fontColor=#000000;" parent="1" vertex="1">
          <mxGeometry x="1190" y="635" width="30" height="25" as="geometry" />
        </mxCell>
        <mxCell id="jzE8oIi-crpwVp-MOxEN-33" value="Targa" style="text;html=1;strokeColor=none;fillColor=none;align=center;verticalAlign=middle;whiteSpace=wrap;rounded=0;fontSize=9;fontColor=#000000;" parent="1" vertex="1">
          <mxGeometry x="1260" y="645" width="30" height="25" as="geometry" />
        </mxCell>
        <mxCell id="jzE8oIi-crpwVp-MOxEN-34" value="Nome" style="text;html=1;strokeColor=none;fillColor=none;align=center;verticalAlign=middle;whiteSpace=wrap;rounded=0;fontSize=9;fontColor=#000000;" parent="1" vertex="1">
          <mxGeometry x="395" y="640" width="36.5" height="20" as="geometry" />
        </mxCell>
        <mxCell id="jzE8oIi-crpwVp-MOxEN-37" value="Cognome" style="text;html=1;strokeColor=none;fillColor=none;align=center;verticalAlign=middle;whiteSpace=wrap;rounded=0;fontSize=9;fontColor=#000000;" parent="1" vertex="1">
          <mxGeometry x="402.02" y="750" width="45" height="20" as="geometry" />
        </mxCell>
        <mxCell id="jzE8oIi-crpwVp-MOxEN-38" value="CF" style="text;html=1;strokeColor=none;fillColor=none;align=center;verticalAlign=middle;whiteSpace=wrap;rounded=0;fontSize=9;fontColor=#000000;" parent="1" vertex="1">
          <mxGeometry x="495.75" y="752.5" width="30" height="20" as="geometry" />
        </mxCell>
        <mxCell id="jzE8oIi-crpwVp-MOxEN-39" value="Nome" style="text;html=1;strokeColor=none;fillColor=none;align=center;verticalAlign=middle;whiteSpace=wrap;rounded=0;fontSize=9;fontColor=#000000;" parent="1" vertex="1">
          <mxGeometry x="1115.44" y="755" width="36.5" height="20" as="geometry" />
        </mxCell>
        <mxCell id="jzE8oIi-crpwVp-MOxEN-40" value="Cognome" style="text;html=1;strokeColor=none;fillColor=none;align=center;verticalAlign=middle;whiteSpace=wrap;rounded=0;fontSize=9;fontColor=#000000;" parent="1" vertex="1">
          <mxGeometry x="1170" y="755" width="50" height="20" as="geometry" />
        </mxCell>
        <mxCell id="jzE8oIi-crpwVp-MOxEN-41" value="CF" style="text;html=1;strokeColor=none;fillColor=none;align=center;verticalAlign=middle;whiteSpace=wrap;rounded=0;fontSize=9;fontColor=#000000;" parent="1" vertex="1">
          <mxGeometry x="1247" y="755" width="30" height="20" as="geometry" />
        </mxCell>
        <mxCell id="jzE8oIi-crpwVp-MOxEN-42" value="Telefono" style="text;html=1;strokeColor=none;fillColor=none;align=center;verticalAlign=middle;whiteSpace=wrap;rounded=0;fontSize=9;fontColor=#000000;" parent="1" vertex="1">
          <mxGeometry x="120" y="747.5" width="40" height="25" as="geometry" />
        </mxCell>
        <mxCell id="jzE8oIi-crpwVp-MOxEN-43" value="E-mail" style="text;html=1;strokeColor=none;fillColor=none;align=center;verticalAlign=middle;whiteSpace=wrap;rounded=0;fontSize=9;fontColor=#000000;" parent="1" vertex="1">
          <mxGeometry x="120" y="645" width="40" height="20" as="geometry" />
        </mxCell>
        <mxCell id="jzE8oIi-crpwVp-MOxEN-52" value="(1,N)" style="text;html=1;align=center;verticalAlign=middle;whiteSpace=wrap;rounded=0;fontColor=#FF0000;" parent="1" vertex="1">
          <mxGeometry x="940" y="375" width="40" height="10" as="geometry" />
        </mxCell>
        <mxCell id="jzE8oIi-crpwVp-MOxEN-53" value="(1,N)" style="text;html=1;align=center;verticalAlign=middle;whiteSpace=wrap;rounded=0;fontColor=#FF0000;" parent="1" vertex="1">
          <mxGeometry x="1110" y="695" width="40" height="10" as="geometry" />
        </mxCell>
        <mxCell id="jzE8oIi-crpwVp-MOxEN-54" value="(1,N)" style="text;html=1;align=center;verticalAlign=middle;whiteSpace=wrap;rounded=0;fontColor=#FF0000;" parent="1" vertex="1">
          <mxGeometry x="647" y="1000" width="40" height="20" as="geometry" />
        </mxCell>
        <mxCell id="jzE8oIi-crpwVp-MOxEN-56" value="(1,N)" style="text;html=1;align=center;verticalAlign=middle;whiteSpace=wrap;rounded=0;fontColor=#FF0000;" parent="1" vertex="1">
          <mxGeometry x="514" y="695" width="40" height="10" as="geometry" />
        </mxCell>
        <mxCell id="jzE8oIi-crpwVp-MOxEN-58" value="(0,N)" style="text;html=1;align=center;verticalAlign=middle;whiteSpace=wrap;rounded=0;fontColor=#FF0000;" parent="1" vertex="1">
          <mxGeometry x="770" y="620" width="40" height="10" as="geometry" />
        </mxCell>
        <mxCell id="jzE8oIi-crpwVp-MOxEN-59" value="(1,N)" style="text;html=1;align=center;verticalAlign=middle;whiteSpace=wrap;rounded=0;fontColor=#FF0000;" parent="1" vertex="1">
          <mxGeometry x="694" y="370" width="40" height="20" as="geometry" />
        </mxCell>
        <mxCell id="jzE8oIi-crpwVp-MOxEN-60" value="(1,N)" style="text;html=1;align=center;verticalAlign=middle;whiteSpace=wrap;rounded=0;fontColor=#FF0000;" parent="1" vertex="1">
          <mxGeometry x="729" y="222.5" width="40" height="10" as="geometry" />
        </mxCell>
        <mxCell id="9aJF9EeRNq_PgOef32kS-4" value="(1,1)" style="text;html=1;strokeColor=none;fillColor=none;align=center;verticalAlign=middle;whiteSpace=wrap;rounded=0;fontColor=#FF0000;" parent="1" vertex="1">
          <mxGeometry x="738" y="690" width="33" height="20" as="geometry" />
        </mxCell>
        <mxCell id="9aJF9EeRNq_PgOef32kS-5" value="(1,1)" style="text;html=1;strokeColor=none;fillColor=none;align=center;verticalAlign=middle;whiteSpace=wrap;rounded=0;fontColor=#FF0000;" parent="1" vertex="1">
          <mxGeometry x="852" y="615" width="38" height="20" as="geometry" />
        </mxCell>
        <mxCell id="9aJF9EeRNq_PgOef32kS-6" value="(0,1)" style="text;html=1;strokeColor=none;fillColor=none;align=center;verticalAlign=middle;whiteSpace=wrap;rounded=0;fontColor=#FF0000;" parent="1" vertex="1">
          <mxGeometry x="769" y="770" width="33" height="20" as="geometry" />
        </mxCell>
        <mxCell id="9aJF9EeRNq_PgOef32kS-7" value="(1,1)" style="text;html=1;strokeColor=none;fillColor=none;align=center;verticalAlign=middle;whiteSpace=wrap;rounded=0;fontColor=#FF0000;" parent="1" vertex="1">
          <mxGeometry x="941.5" y="430" width="30.44" height="20" as="geometry" />
        </mxCell>
        <mxCell id="9aJF9EeRNq_PgOef32kS-8" value="(1,1)" style="text;html=1;strokeColor=none;fillColor=none;align=center;verticalAlign=middle;whiteSpace=wrap;rounded=0;fontColor=#FF0000;" parent="1" vertex="1">
          <mxGeometry x="699" y="430" width="30" height="20" as="geometry" />
        </mxCell>
        <mxCell id="9aJF9EeRNq_PgOef32kS-9" value="(1,1)" style="text;html=1;strokeColor=none;fillColor=none;align=center;verticalAlign=middle;whiteSpace=wrap;rounded=0;fontColor=#FF0000;" parent="1" vertex="1">
          <mxGeometry x="891.44" y="687.5" width="38" height="25" as="geometry" />
        </mxCell>
        <mxCell id="9aJF9EeRNq_PgOef32kS-11" value="M" style="text;html=1;strokeColor=none;fillColor=none;align=center;verticalAlign=middle;whiteSpace=wrap;rounded=0;fontColor=#FF0000;" parent="1" vertex="1">
          <mxGeometry x="699" y="267.5" width="10" height="10" as="geometry" />
        </mxCell>
        <mxCell id="9aJF9EeRNq_PgOef32kS-12" value="N" style="text;html=1;strokeColor=none;fillColor=none;align=center;verticalAlign=middle;whiteSpace=wrap;rounded=0;fontColor=#FF0000;" parent="1" vertex="1">
          <mxGeometry x="755.5" y="267.5" width="10" height="10" as="geometry" />
        </mxCell>
        <mxCell id="9aJF9EeRNq_PgOef32kS-13" value="M" style="text;html=1;strokeColor=none;fillColor=none;align=center;verticalAlign=middle;whiteSpace=wrap;rounded=0;fontColor=#FF0000;" parent="1" vertex="1">
          <mxGeometry x="905.44" y="267.5" width="10" height="10" as="geometry" />
        </mxCell>
        <mxCell id="9aJF9EeRNq_PgOef32kS-14" value="N" style="text;html=1;strokeColor=none;fillColor=none;align=center;verticalAlign=middle;whiteSpace=wrap;rounded=0;fontColor=#FF0000;" parent="1" vertex="1">
          <mxGeometry x="961.94" y="267.5" width="10" height="10" as="geometry" />
        </mxCell>
        <mxCell id="9aJF9EeRNq_PgOef32kS-19" value="1" style="text;html=1;strokeColor=none;fillColor=none;align=center;verticalAlign=middle;whiteSpace=wrap;rounded=0;fontColor=#FF0000;" parent="1" vertex="1">
          <mxGeometry x="907.75" y="480" width="10" height="10" as="geometry" />
        </mxCell>
        <mxCell id="9aJF9EeRNq_PgOef32kS-20" value="1" style="text;html=1;strokeColor=none;fillColor=none;align=center;verticalAlign=middle;whiteSpace=wrap;rounded=0;fontColor=#FF0000;" parent="1" vertex="1">
          <mxGeometry x="964.25" y="480" width="10" height="10" as="geometry" />
        </mxCell>
        <mxCell id="9aJF9EeRNq_PgOef32kS-21" value="N" style="text;html=1;strokeColor=none;fillColor=none;align=center;verticalAlign=middle;whiteSpace=wrap;rounded=0;fontColor=#FF0000;" parent="1" vertex="1">
          <mxGeometry x="697.25" y="480" width="10" height="10" as="geometry" />
        </mxCell>
        <mxCell id="9aJF9EeRNq_PgOef32kS-22" value="1" style="text;html=1;strokeColor=none;fillColor=none;align=center;verticalAlign=middle;whiteSpace=wrap;rounded=0;fontColor=#FF0000;" parent="1" vertex="1">
          <mxGeometry x="753.75" y="480" width="10" height="10" as="geometry" />
        </mxCell>
        <mxCell id="9aJF9EeRNq_PgOef32kS-25" value="1" style="text;html=1;strokeColor=none;fillColor=none;align=center;verticalAlign=middle;whiteSpace=wrap;rounded=0;fontColor=#FF0000;" parent="1" vertex="1">
          <mxGeometry x="613" y="685" width="10" height="10" as="geometry" />
        </mxCell>
        <mxCell id="9aJF9EeRNq_PgOef32kS-26" value="N" style="text;html=1;strokeColor=none;fillColor=none;align=center;verticalAlign=middle;whiteSpace=wrap;rounded=0;fontColor=#FF0000;" parent="1" vertex="1">
          <mxGeometry x="699" y="685" width="10" height="10" as="geometry" />
        </mxCell>
        <mxCell id="9aJF9EeRNq_PgOef32kS-27" value="N" style="text;html=1;strokeColor=none;fillColor=none;align=center;verticalAlign=middle;whiteSpace=wrap;rounded=0;fontColor=#FF0000;" parent="1" vertex="1">
          <mxGeometry x="955" y="685" width="10" height="10" as="geometry" />
        </mxCell>
        <mxCell id="9aJF9EeRNq_PgOef32kS-28" value="1" style="text;html=1;strokeColor=none;fillColor=none;align=center;verticalAlign=middle;whiteSpace=wrap;rounded=0;fontColor=#FF0000;" parent="1" vertex="1">
          <mxGeometry x="1051.5" y="685" width="10" height="10" as="geometry" />
        </mxCell>
        <mxCell id="cwDBM6tycQYc7HeiNDPo-1" value="(0,1)" style="text;html=1;strokeColor=none;fillColor=none;align=center;verticalAlign=middle;whiteSpace=wrap;rounded=0;fontColor=#FF0000;" parent="1" vertex="1">
          <mxGeometry x="778.31" y="285" width="28.44" height="15" as="geometry" />
        </mxCell>
        <mxCell id="cwDBM6tycQYc7HeiNDPo-2" value="" style="endArrow=oval;html=1;rounded=0;fontSize=11;endFill=1;fontColor=#FF0000;" parent="1" edge="1">
          <mxGeometry width="50" height="50" relative="1" as="geometry">
            <mxPoint x="719.5" y="450" as="sourcePoint" />
            <mxPoint x="789.5" y="450" as="targetPoint" />
          </mxGeometry>
        </mxCell>
        <mxCell id="rHscnQnr_pqCsqy7i4I7-6" value="Matricola" style="text;html=1;strokeColor=none;fillColor=none;align=center;verticalAlign=middle;whiteSpace=wrap;rounded=0;fontSize=9;" parent="1" vertex="1">
          <mxGeometry x="813.25" y="222.5" width="50" height="15" as="geometry" />
        </mxCell>
        <mxCell id="L8EaPlabEkE5flBV4axa-7" style="edgeStyle=orthogonalEdgeStyle;rounded=0;orthogonalLoop=1;jettySize=auto;html=1;exitX=1;exitY=0.5;exitDx=0;exitDy=0;entryX=0.5;entryY=1;entryDx=0;entryDy=0;endArrow=none;endFill=0;" parent="1" source="L8EaPlabEkE5flBV4axa-4" target="FtTrVJw0tq06EMOVsZJ_-161" edge="1">
          <mxGeometry relative="1" as="geometry" />
        </mxCell>
        <mxCell id="L8EaPlabEkE5flBV4axa-4" value="Associazione" style="shape=rhombus;perimeter=rhombusPerimeter;whiteSpace=wrap;html=1;align=center;" parent="1" vertex="1">
          <mxGeometry x="768.25" y="1100" width="120" height="60" as="geometry" />
        </mxCell>
        <mxCell id="L8EaPlabEkE5flBV4axa-8" value="N" style="text;html=1;strokeColor=none;fillColor=none;align=center;verticalAlign=middle;whiteSpace=wrap;rounded=0;fontColor=#FF0000;" parent="1" vertex="1">
          <mxGeometry x="727.25" y="870" width="10" height="10" as="geometry" />
        </mxCell>
        <mxCell id="L8EaPlabEkE5flBV4axa-9" value="1" style="text;html=1;strokeColor=none;fillColor=none;align=center;verticalAlign=middle;whiteSpace=wrap;rounded=0;fontColor=#FF0000;" parent="1" vertex="1">
          <mxGeometry x="783.75" y="870" width="10" height="10" as="geometry" />
        </mxCell>
        <mxCell id="L8EaPlabEkE5flBV4axa-10" value="M" style="text;html=1;strokeColor=none;fillColor=none;align=center;verticalAlign=middle;whiteSpace=wrap;rounded=0;fontColor=#FF0000;" parent="1" vertex="1">
          <mxGeometry x="795.51" y="1100" width="10" height="10" as="geometry" />
        </mxCell>
        <mxCell id="L8EaPlabEkE5flBV4axa-11" value="N" style="text;html=1;strokeColor=none;fillColor=none;align=center;verticalAlign=middle;whiteSpace=wrap;rounded=0;fontColor=#FF0000;" parent="1" vertex="1">
          <mxGeometry x="852.01" y="1100" width="10" height="10" as="geometry" />
        </mxCell>
        <mxCell id="L8EaPlabEkE5flBV4axa-12" value="(1,N)" style="text;html=1;align=center;verticalAlign=middle;whiteSpace=wrap;rounded=0;fontColor=#FF0000;" parent="1" vertex="1">
          <mxGeometry x="980" y="1060" width="40" height="20" as="geometry" />
        </mxCell>
        <mxCell id="L8EaPlabEkE5flBV4axa-13" value="(0,N)" style="text;html=1;align=center;verticalAlign=middle;whiteSpace=wrap;rounded=0;fontColor=#FF0000;" parent="1" vertex="1">
          <mxGeometry x="620.75" y="1062.5" width="40" height="20" as="geometry" />
        </mxCell>
        <mxCell id="izS-Pc84o4L70vQIA0t2-4" value="&lt;font style=&quot;font-size: 9px&quot;&gt;Sostituzione&lt;/font&gt;" style="text;html=1;strokeColor=none;fillColor=none;align=center;verticalAlign=middle;whiteSpace=wrap;rounded=0;" parent="1" vertex="1">
          <mxGeometry x="602.5" y="399.99" width="58" height="20" as="geometry" />
        </mxCell>
        <mxCell id="VWWuzck4U35PcZzD3d7Q-10" style="edgeStyle=none;rounded=0;orthogonalLoop=1;jettySize=auto;html=1;exitX=0;exitY=0.5;exitDx=0;exitDy=0;entryX=1;entryY=0.5;entryDx=0;entryDy=0;fontSize=11;endArrow=none;endFill=0;" edge="1" parent="1" source="VWWuzck4U35PcZzD3d7Q-5" target="VWWuzck4U35PcZzD3d7Q-9">
          <mxGeometry relative="1" as="geometry" />
        </mxCell>
        <mxCell id="VWWuzck4U35PcZzD3d7Q-5" value="&lt;span style=&quot;font-size: 11px&quot;&gt;DATI&lt;br&gt;DIPENDENTE&lt;/span&gt;" style="shape=rhombus;perimeter=rhombusPerimeter;whiteSpace=wrap;html=1;align=center;" vertex="1" parent="1">
          <mxGeometry x="493" y="170" width="120" height="60" as="geometry" />
        </mxCell>
        <mxCell id="VWWuzck4U35PcZzD3d7Q-16" style="edgeStyle=none;rounded=0;orthogonalLoop=1;jettySize=auto;html=1;exitX=0.75;exitY=0;exitDx=0;exitDy=0;entryX=0.5;entryY=1;entryDx=0;entryDy=0;fontSize=11;endArrow=oval;endFill=0;" edge="1" parent="1" source="VWWuzck4U35PcZzD3d7Q-9" target="uWJtjKGiHwzr4gWqTYHl-64">
          <mxGeometry relative="1" as="geometry" />
        </mxCell>
        <mxCell id="VWWuzck4U35PcZzD3d7Q-17" style="edgeStyle=none;rounded=0;orthogonalLoop=1;jettySize=auto;html=1;exitX=0.25;exitY=0;exitDx=0;exitDy=0;entryX=0.5;entryY=1;entryDx=0;entryDy=0;fontSize=11;endArrow=oval;endFill=0;" edge="1" parent="1" source="VWWuzck4U35PcZzD3d7Q-9" target="uWJtjKGiHwzr4gWqTYHl-62">
          <mxGeometry relative="1" as="geometry" />
        </mxCell>
        <mxCell id="VWWuzck4U35PcZzD3d7Q-18" style="edgeStyle=none;rounded=0;orthogonalLoop=1;jettySize=auto;html=1;exitX=0;exitY=0;exitDx=0;exitDy=0;entryX=1;entryY=0.5;entryDx=0;entryDy=0;fontSize=11;endArrow=oval;endFill=0;" edge="1" parent="1" source="VWWuzck4U35PcZzD3d7Q-9" target="uWJtjKGiHwzr4gWqTYHl-61">
          <mxGeometry relative="1" as="geometry" />
        </mxCell>
        <mxCell id="VWWuzck4U35PcZzD3d7Q-19" style="edgeStyle=none;rounded=0;orthogonalLoop=1;jettySize=auto;html=1;exitX=0;exitY=0.5;exitDx=0;exitDy=0;entryX=1;entryY=0;entryDx=0;entryDy=0;fontSize=11;endArrow=oval;endFill=0;" edge="1" parent="1" source="VWWuzck4U35PcZzD3d7Q-9" target="uWJtjKGiHwzr4gWqTYHl-63">
          <mxGeometry relative="1" as="geometry" />
        </mxCell>
        <mxCell id="VWWuzck4U35PcZzD3d7Q-20" style="edgeStyle=none;rounded=0;orthogonalLoop=1;jettySize=auto;html=1;exitX=0.5;exitY=1;exitDx=0;exitDy=0;entryX=0.5;entryY=0;entryDx=0;entryDy=0;fontSize=11;endArrow=oval;endFill=0;" edge="1" parent="1" source="VWWuzck4U35PcZzD3d7Q-9" target="uWJtjKGiHwzr4gWqTYHl-65">
          <mxGeometry relative="1" as="geometry" />
        </mxCell>
        <mxCell id="VWWuzck4U35PcZzD3d7Q-9" value="CONTATTI&lt;br&gt;DIPENDENTE" style="whiteSpace=wrap;html=1;align=center;fontSize=11;" vertex="1" parent="1">
          <mxGeometry x="342.02" y="180" width="100" height="40" as="geometry" />
        </mxCell>
        <mxCell id="VWWuzck4U35PcZzD3d7Q-21" value="" style="endArrow=oval;html=1;rounded=0;fontSize=11;endFill=1;fontColor=#FF0000;" edge="1" parent="1">
          <mxGeometry width="50" height="50" relative="1" as="geometry">
            <mxPoint x="460" y="162.26" as="sourcePoint" />
            <mxPoint x="460" y="222.5" as="targetPoint" />
          </mxGeometry>
        </mxCell>
        <mxCell id="VWWuzck4U35PcZzD3d7Q-22" value="NomeCategoria" style="text;html=1;strokeColor=none;fillColor=none;align=center;verticalAlign=middle;whiteSpace=wrap;rounded=0;fontSize=9;" vertex="1" parent="1">
          <mxGeometry x="1094.75" y="1045" width="66" height="20" as="geometry" />
        </mxCell>
        <mxCell id="VWWuzck4U35PcZzD3d7Q-23" value="DestinazioneUso" style="text;html=1;strokeColor=none;fillColor=none;align=center;verticalAlign=middle;whiteSpace=wrap;rounded=0;fontSize=9;" vertex="1" parent="1">
          <mxGeometry x="1049.25" y="1080" width="60" height="25" as="geometry" />
        </mxCell>
        <mxCell id="VWWuzck4U35PcZzD3d7Q-26" style="edgeStyle=none;rounded=0;orthogonalLoop=1;jettySize=auto;html=1;exitX=0.5;exitY=0;exitDx=0;exitDy=0;entryX=0.5;entryY=1;entryDx=0;entryDy=0;fontSize=11;endArrow=none;endFill=0;" edge="1" parent="1" source="VWWuzck4U35PcZzD3d7Q-24" target="gx2fqg2UMWbFpVax5CwM-2">
          <mxGeometry relative="1" as="geometry" />
        </mxCell>
        <mxCell id="VWWuzck4U35PcZzD3d7Q-24" value="&lt;font style=&quot;font-size: 11px&quot;&gt;APPARTENENZA&lt;/font&gt;" style="shape=rhombus;perimeter=rhombusPerimeter;whiteSpace=wrap;html=1;align=center;" vertex="1" parent="1">
          <mxGeometry x="860" y="880" width="120" height="60" as="geometry" />
        </mxCell>
        <mxCell id="VWWuzck4U35PcZzD3d7Q-37" value="(0,1)" style="text;html=1;strokeColor=none;fillColor=none;align=center;verticalAlign=middle;whiteSpace=wrap;rounded=0;fontColor=#FF0000;" vertex="1" parent="1">
          <mxGeometry x="864.75" y="770" width="33" height="20" as="geometry" />
        </mxCell>
        <mxCell id="VWWuzck4U35PcZzD3d7Q-38" value="N" style="text;html=1;strokeColor=none;fillColor=none;align=center;verticalAlign=middle;whiteSpace=wrap;rounded=0;fontColor=#FF0000;" vertex="1" parent="1">
          <mxGeometry x="886.75" y="870" width="10" height="10" as="geometry" />
        </mxCell>
        <mxCell id="VWWuzck4U35PcZzD3d7Q-39" value="1" style="text;html=1;strokeColor=none;fillColor=none;align=center;verticalAlign=middle;whiteSpace=wrap;rounded=0;fontColor=#FF0000;" vertex="1" parent="1">
          <mxGeometry x="943.25" y="870" width="10" height="10" as="geometry" />
        </mxCell>
        <mxCell id="VWWuzck4U35PcZzD3d7Q-40" value="(1,N)" style="text;html=1;align=center;verticalAlign=middle;whiteSpace=wrap;rounded=0;fontColor=#FF0000;" vertex="1" parent="1">
          <mxGeometry x="965" y="1000" width="40" height="20" as="geometry" />
        </mxCell>
        <mxCell id="VWWuzck4U35PcZzD3d7Q-42" value="DATI&lt;br&gt;CLIENTE" style="shape=rhombus;perimeter=rhombusPerimeter;whiteSpace=wrap;html=1;align=center;fontSize=11;" vertex="1" parent="1">
          <mxGeometry x="241.5" y="679.9971428571429" width="120" height="60" as="geometry" />
        </mxCell>
        <mxCell id="VWWuzck4U35PcZzD3d7Q-46" style="edgeStyle=none;rounded=0;orthogonalLoop=1;jettySize=auto;html=1;exitX=1;exitY=0.5;exitDx=0;exitDy=0;entryX=0;entryY=0.5;entryDx=0;entryDy=0;fontSize=11;endArrow=none;endFill=0;" edge="1" parent="1" source="VWWuzck4U35PcZzD3d7Q-45" target="VWWuzck4U35PcZzD3d7Q-42">
          <mxGeometry relative="1" as="geometry" />
        </mxCell>
        <mxCell id="VWWuzck4U35PcZzD3d7Q-47" style="edgeStyle=none;rounded=0;orthogonalLoop=1;jettySize=auto;html=1;exitX=0.5;exitY=0;exitDx=0;exitDy=0;entryX=0.5;entryY=1;entryDx=0;entryDy=0;fontSize=11;endArrow=oval;endFill=0;" edge="1" parent="1" source="VWWuzck4U35PcZzD3d7Q-45" target="jzE8oIi-crpwVp-MOxEN-43">
          <mxGeometry relative="1" as="geometry" />
        </mxCell>
        <mxCell id="VWWuzck4U35PcZzD3d7Q-48" style="edgeStyle=none;rounded=0;orthogonalLoop=1;jettySize=auto;html=1;exitX=0.5;exitY=1;exitDx=0;exitDy=0;entryX=0.5;entryY=0;entryDx=0;entryDy=0;fontSize=11;endArrow=oval;endFill=0;" edge="1" parent="1" source="VWWuzck4U35PcZzD3d7Q-45" target="jzE8oIi-crpwVp-MOxEN-42">
          <mxGeometry relative="1" as="geometry" />
        </mxCell>
        <mxCell id="VWWuzck4U35PcZzD3d7Q-45" value="CONTATTI&lt;br&gt;CLIENTE" style="whiteSpace=wrap;html=1;align=center;fontSize=11;" vertex="1" parent="1">
          <mxGeometry x="90" y="690" width="100" height="40" as="geometry" />
        </mxCell>
        <mxCell id="VWWuzck4U35PcZzD3d7Q-52" value="(1,N)" style="text;html=1;align=center;verticalAlign=middle;whiteSpace=wrap;rounded=0;fontColor=#FF0000;" vertex="1" parent="1">
          <mxGeometry x="375" y="695" width="40" height="10" as="geometry" />
        </mxCell>
        <mxCell id="VWWuzck4U35PcZzD3d7Q-53" value="(1,1)" style="text;html=1;strokeColor=none;fillColor=none;align=center;verticalAlign=middle;whiteSpace=wrap;rounded=0;fontColor=#FF0000;" vertex="1" parent="1">
          <mxGeometry x="190" y="687.5" width="33" height="20" as="geometry" />
        </mxCell>
        <mxCell id="VWWuzck4U35PcZzD3d7Q-54" value="N" style="text;html=1;strokeColor=none;fillColor=none;align=center;verticalAlign=middle;whiteSpace=wrap;rounded=0;fontColor=#FF0000;" vertex="1" parent="1">
          <mxGeometry x="253.5" y="677.5" width="10" height="10" as="geometry" />
        </mxCell>
        <mxCell id="VWWuzck4U35PcZzD3d7Q-55" value="1" style="text;html=1;strokeColor=none;fillColor=none;align=center;verticalAlign=middle;whiteSpace=wrap;rounded=0;fontColor=#FF0000;" vertex="1" parent="1">
          <mxGeometry x="339.5" y="677.5" width="10" height="10" as="geometry" />
        </mxCell>
        <mxCell id="VWWuzck4U35PcZzD3d7Q-56" value="" style="endArrow=oval;html=1;rounded=0;fontSize=11;endFill=1;fontColor=#FF0000;" edge="1" parent="1">
          <mxGeometry width="50" height="50" relative="1" as="geometry">
            <mxPoint x="223" y="677.5" as="sourcePoint" />
            <mxPoint x="223" y="737.74" as="targetPoint" />
          </mxGeometry>
        </mxCell>
        <mxCell id="VWWuzck4U35PcZzD3d7Q-68" value="Telefono" style="text;html=1;strokeColor=none;fillColor=none;align=center;verticalAlign=middle;whiteSpace=wrap;rounded=0;fontSize=9;fontColor=#000000;direction=east;" vertex="1" parent="1">
          <mxGeometry x="1490" y="747.5" width="40" height="25" as="geometry" />
        </mxCell>
        <mxCell id="VWWuzck4U35PcZzD3d7Q-69" value="E-mail" style="text;html=1;strokeColor=none;fillColor=none;align=center;verticalAlign=middle;whiteSpace=wrap;rounded=0;fontSize=9;fontColor=#000000;direction=east;" vertex="1" parent="1">
          <mxGeometry x="1490" y="645" width="40" height="20" as="geometry" />
        </mxCell>
        <mxCell id="VWWuzck4U35PcZzD3d7Q-79" style="edgeStyle=none;rounded=0;orthogonalLoop=1;jettySize=auto;html=1;exitX=1;exitY=0.5;exitDx=0;exitDy=0;entryX=0;entryY=0.5;entryDx=0;entryDy=0;fontSize=11;endArrow=none;endFill=0;" edge="1" parent="1" source="VWWuzck4U35PcZzD3d7Q-70" target="VWWuzck4U35PcZzD3d7Q-74">
          <mxGeometry relative="1" as="geometry" />
        </mxCell>
        <mxCell id="VWWuzck4U35PcZzD3d7Q-70" value="DATI&lt;br&gt;CORRIERE" style="shape=rhombus;perimeter=rhombusPerimeter;whiteSpace=wrap;html=1;align=center;fontSize=11;direction=east;" vertex="1" parent="1">
          <mxGeometry x="1300" y="679.9971428571429" width="120" height="60" as="geometry" />
        </mxCell>
        <mxCell id="VWWuzck4U35PcZzD3d7Q-72" style="edgeStyle=none;rounded=0;orthogonalLoop=1;jettySize=auto;html=1;exitX=0.5;exitY=0;exitDx=0;exitDy=0;entryX=0.5;entryY=1;entryDx=0;entryDy=0;fontSize=11;endArrow=oval;endFill=0;" edge="1" parent="1" source="VWWuzck4U35PcZzD3d7Q-74" target="VWWuzck4U35PcZzD3d7Q-69">
          <mxGeometry relative="1" as="geometry" />
        </mxCell>
        <mxCell id="VWWuzck4U35PcZzD3d7Q-73" style="edgeStyle=none;rounded=0;orthogonalLoop=1;jettySize=auto;html=1;exitX=0.5;exitY=1;exitDx=0;exitDy=0;entryX=0.5;entryY=0;entryDx=0;entryDy=0;fontSize=11;endArrow=oval;endFill=0;" edge="1" parent="1" source="VWWuzck4U35PcZzD3d7Q-74" target="VWWuzck4U35PcZzD3d7Q-68">
          <mxGeometry relative="1" as="geometry" />
        </mxCell>
        <mxCell id="VWWuzck4U35PcZzD3d7Q-74" value="CONTATTI&lt;br&gt;CORRIERE" style="whiteSpace=wrap;html=1;align=center;fontSize=11;direction=east;" vertex="1" parent="1">
          <mxGeometry x="1460" y="690" width="100" height="40" as="geometry" />
        </mxCell>
        <mxCell id="VWWuzck4U35PcZzD3d7Q-75" value="(1,1)" style="text;html=1;strokeColor=none;fillColor=none;align=center;verticalAlign=middle;whiteSpace=wrap;rounded=0;fontColor=#FF0000;direction=east;" vertex="1" parent="1">
          <mxGeometry x="1427" y="690" width="33" height="20" as="geometry" />
        </mxCell>
        <mxCell id="VWWuzck4U35PcZzD3d7Q-76" value="1" style="text;html=1;strokeColor=none;fillColor=none;align=center;verticalAlign=middle;whiteSpace=wrap;rounded=0;fontColor=#FF0000;direction=east;" vertex="1" parent="1">
          <mxGeometry x="1312" y="675" width="10" height="10" as="geometry" />
        </mxCell>
        <mxCell id="VWWuzck4U35PcZzD3d7Q-77" value="N" style="text;html=1;strokeColor=none;fillColor=none;align=center;verticalAlign=middle;whiteSpace=wrap;rounded=0;fontColor=#FF0000;direction=east;" vertex="1" parent="1">
          <mxGeometry x="1398" y="675" width="10" height="10" as="geometry" />
        </mxCell>
        <mxCell id="VWWuzck4U35PcZzD3d7Q-78" value="" style="endArrow=oval;html=1;rounded=0;fontSize=11;endFill=1;fontColor=#FF0000;" edge="1" parent="1">
          <mxGeometry width="50" height="50" relative="1" as="geometry">
            <mxPoint x="1430" y="677.5" as="sourcePoint" />
            <mxPoint x="1430" y="737.74" as="targetPoint" />
          </mxGeometry>
        </mxCell>
        <mxCell id="VWWuzck4U35PcZzD3d7Q-84" value="(1,N)" style="text;html=1;strokeColor=none;fillColor=none;align=center;verticalAlign=middle;whiteSpace=wrap;rounded=0;fontColor=#FF0000;direction=east;" vertex="1" parent="1">
          <mxGeometry x="1267" y="687.5" width="33" height="20" as="geometry" />
        </mxCell>
      </root>
    </mxGraphModel>
  </diagram>
</mxfile>
